<?xml version="1.0" standalone="no"?>
<!DOCTYPE svg PUBLIC "-//W3C//DTD SVG 20010904//EN"
 "http://www.w3.org/TR/2001/REC-SVG-20010904/DTD/svg10.dtd">
<svg version="1.0" xmlns="http://www.w3.org/2000/svg"
 width="334.000000pt" height="334.000000pt" viewBox="0 0 334.000000 334.000000"
 preserveAspectRatio="xMidYMid meet">
<metadata>
Created by potrace 1.11, written by Peter Selinger 2001-2013
</metadata>
<g transform="translate(0.000000,334.000000) scale(0.100000,-0.100000)"
fill="#000000" stroke="none">
<path d="M267 3164 c-16 -16 -5 -50 31 -93 21 -25 46 -59 56 -76 10 -16 27
-39 37 -50 23 -24 112 -156 107 -158 -1 -1 -15 -12 -29 -25 l-25 -22 -40 30
c-21 16 -44 30 -50 30 -6 0 -17 7 -24 15 -7 8 -24 21 -39 28 -88 47 -148 80
-161 91 -30 24 -86 48 -105 45 -18 -4 -20 -14 -23 -83 -2 -46 2 -84 8 -90 5
-5 10 -18 10 -27 0 -16 34 -43 260 -211 162 -120 192 -147 215 -192 12 -24 31
-57 42 -73 42 -60 34 -83 -26 -83 -20 -1 -52 -9 -71 -18 -49 -24 -52 -61 -8
-106 18 -18 67 -71 108 -116 41 -45 83 -91 92 -101 10 -11 26 -19 36 -19 10 0
22 -4 28 -9 5 -4 32 -14 59 -20 146 -37 251 -75 275 -100 14 -15 44 -39 67
-55 23 -15 44 -34 47 -41 2 -7 37 -41 78 -76 68 -58 98 -96 98 -122 0 -6 18
-48 40 -93 22 -46 40 -86 40 -89 0 -20 59 -78 96 -94 24 -11 63 -33 88 -50 25
-17 51 -31 59 -31 7 0 24 -11 37 -25 27 -29 77 -34 87 -9 3 9 0 39 -7 68 -14
57 -28 131 -37 191 -3 22 -9 44 -14 49 -5 6 -9 22 -9 38 0 28 -23 48 -57 48
-10 0 -23 10 -28 22 -6 12 -26 30 -45 41 -19 10 -51 31 -70 46 -19 15 -77 60
-129 100 -52 39 -124 97 -160 129 -99 86 -331 323 -331 338 0 7 -6 17 -13 21
-18 11 -127 183 -127 200 0 7 -4 21 -9 31 -33 64 -34 72 -23 109 18 56 54 77
127 76 71 -1 133 -12 141 -24 3 -5 13 -9 24 -9 10 0 35 -9 57 -19 61 -30 132
-61 142 -61 5 0 14 -7 21 -15 10 -13 85 -59 150 -92 14 -8 61 -39 105 -71 116
-83 148 -96 230 -97 68 0 70 1 73 26 2 21 -6 33 -36 58 -22 17 -44 31 -48 31
-10 0 -54 65 -54 77 0 5 -14 37 -32 73 -17 36 -36 76 -41 90 -20 55 -33 73
-68 94 -74 43 -225 149 -240 168 -11 14 -25 19 -49 16 -30 -3 -37 -8 -50 -43
-8 -22 -23 -51 -32 -64 l-16 -23 -54 24 c-29 14 -69 31 -88 38 -19 7 -47 22
-62 32 -14 10 -28 18 -31 18 -2 0 -86 81 -185 180 -162 162 -184 180 -214 180
-19 0 -38 4 -44 9 -12 11 -157 25 -167 15z"/>
<path d="M2639 2948 c-12 -18 -41 -53 -63 -79 -80 -88 -111 -125 -157 -182
-26 -31 -56 -65 -67 -75 -11 -9 -41 -43 -66 -74 -64 -81 -63 -105 12 -185 75
-80 142 -167 142 -183 0 -7 15 -36 33 -64 19 -28 40 -67 46 -86 46 -130 55
-332 20 -434 -12 -34 -25 -65 -30 -71 -5 -5 -9 -14 -9 -21 0 -30 -112 -193
-180 -262 -88 -90 -166 -147 -270 -198 -41 -20 -82 -41 -90 -48 -23 -20 -166
-50 -290 -63 -58 -6 -213 12 -242 28 -10 5 -23 9 -30 9 -7 0 -59 23 -116 52
-99 50 -149 90 -217 173 -29 35 -31 36 -80 31 -27 -4 -92 -10 -144 -14 -74 -6
-96 -12 -107 -27 -20 -27 -17 -75 6 -112 l20 -33 -21 -37 c-12 -21 -34 -57
-50 -80 -16 -23 -29 -45 -29 -50 -1 -4 -14 -24 -30 -43 -17 -19 -30 -42 -30
-51 0 -9 -7 -22 -16 -29 -18 -16 -44 -75 -44 -101 0 -10 48 -68 108 -129 102
-103 111 -110 148 -110 30 0 51 9 91 39 28 22 62 45 75 52 12 6 30 18 38 26 8
8 54 40 102 72 81 55 90 58 133 54 25 -3 48 -10 51 -14 3 -5 18 -9 34 -9 16 0
32 -5 35 -10 3 -6 19 -10 36 -10 48 0 69 -30 69 -99 0 -33 4 -62 9 -65 8 -5
29 -142 34 -221 l2 -40 57 -3 c32 -2 81 2 110 8 44 10 178 26 240 29 19 1 48
53 48 87 0 13 4 25 9 28 5 3 11 23 14 43 2 21 16 81 31 133 15 52 29 110 33
127 6 33 37 64 98 95 79 41 167 81 178 81 7 0 40 -18 73 -40 32 -22 86 -54
119 -72 32 -18 74 -46 92 -62 26 -23 43 -29 76 -28 39 0 47 5 114 77 39 42
101 108 137 147 88 92 88 100 -11 222 -162 199 -173 215 -167 248 4 17 11 35
16 42 17 22 47 84 53 113 3 16 13 34 21 41 8 6 14 19 14 28 0 25 20 41 50 41
14 0 49 11 77 24 27 14 66 28 86 31 21 4 40 11 43 16 3 5 14 9 25 9 11 0 39 9
61 20 23 11 48 20 55 20 8 0 27 7 44 15 25 14 29 21 30 58 0 23 2 109 5 190 4
106 2 153 -7 163 -9 11 -39 14 -125 14 -64 0 -115 4 -119 10 -3 6 -52 10 -110
10 l-105 0 -55 115 -56 116 21 28 c11 16 20 32 20 36 0 4 15 28 33 54 18 25
36 54 40 64 4 9 25 44 47 77 22 32 40 65 40 73 0 8 6 17 14 20 19 7 49 71 44
93 -1 9 -25 29 -53 44 -131 73 -146 82 -174 103 -15 11 -42 17 -77 17 -48 0
-55 -3 -75 -32z"/>
</g>
</svg>
